PathFileType	3	(X/Y/Z)	C:\Users\koon_\Desktop\
DataRate	CameraRate	NumFrames	NumMarkers	Units	OrigDataRate	OrigDataStartFrame	OrigNumFrames
100.0	100.0	11	27	mm	100.0	2500	3999	
Frame#	Time	get:LFHD			get:RFHD			get:LBHD			get:RBHD			get:C7			get:T10			get:CLAV			get:STRN			get:RBAK			get:LSHO			get:LUPA			get:LELB			get:LFRA			get:LWRA			get:LWRB			get:LFIN			get:RSHO			get:RUPA			get:RELB			get:RFRA			get:RWRA			get:RWRB			get:RFIN			get:LASI			get:RASI			get:LPSI			get:RPSI			
		X1	Y1	Z1	X2	Y2	Z2	X3	Y3	Z3	X4	Y4	Z4	X5	Y5	Z5	X6	Y6	Z6	X7	Y7	Z7	X8	Y8	Z8	X9	Y9	Z9	X10	Y10	Z10	X11	Y11	Z11	X12	Y12	Z12	X13	Y13	Z13	X14	Y14	Z14	X15	Y15	Z15	X16	Y16	Z16	X17	Y17	Z17	X18	Y18	Z18	X19	Y19	Z19	X20	Y20	Z20	X21	Y21	Z21	X22	Y22	Z22	X23	Y23	Z23	X24	Y24	Z24	X25	Y25	Z25	X26	Y26	Z26	X27	Y27	Z27	
2500	24.99	-33.103786	1580.1169	-64.077599	-84.225121	1576.3196	-213.36652	81.524513	1559.0289	-109.39764	56.576645	1564.145	-235.16975	79.035027	1377.8942	-212.46104	60.776234	1125.9629	-249.94437	-103.7298	1321.1506	-120.42039	-123.97459	1131.8002	-72.377411	42.038418	1315.2452	-293.4299	48.527313	1396.9366	-67.562263	-19.337017	1366.4354	26.769997	-172.42995	1301.9287	98.179138	-288.40674	1362.4519	68.29216	-385.48755	1370.1799	46.572178	-393.02011	1336.0786	107.46806	-475.81503	1377.1541	92.436684	-59.240837	1402.9769	-277.19897	-231.12674	1346.8341	-339.0239	-325.22186	1277.5002	-351.9263	-367.0903	1362.5962	-306.69595	-489.23886	1427.6511	-234.56419	-522.95276	1376.0542	-269.29941	-566.32147	1447.1172	-257.11865	30.167568	929.03009	-43.531555	-205.28447	928.87506	-192.32085	66.431824	971.0777	-254.34663	-29.007673	958.51569	-314.04138
2501	25	-32.629425	1580.3781	-64.25132	-83.446251	1576.6405	-213.75862	82.072159	1558.9856	-109.29698	57.399704	1564.0541	-235.12642	79.647949	1377.9087	-211.87892	61.460285	1126.1792	-249.02148	-104.01758	1321.3749	-120.9698	-124.54308	1132.1737	-72.770226	42.759445	1315.2926	-293.27591	47.961567	1397.8511	-68.233772	-20.298777	1370.4696	25.755733	-174.71266	1310.1132	97.022781	-289.05981	1373.2416	66.571983	-385.8046	1383.5339	44.891815	-394.46106	1349.6659	105.83306	-476.84885	1394.5287	95.338203	-57.823559	1403.3177	-277.12286	-229.89824	1353.642	-338.70264	-326.37814	1287.7825	-352.35477	-366.65869	1373.7405	-307.28238	-488.2038	1441.1938	-236.32784	-522.64478	1390.1417	-271.19446	-564.7373	1462.1537	-259.91791	29.746218	929.07867	-43.18819	-204.80199	928.7431	-191.99364	67.074615	971.19611	-253.68571	-27.968098	958.69781	-313.93103
2502	25.01	-32.270077	1580.6075	-64.434502	-82.702888	1576.9525	-214.19901	82.507881	1558.9424	-109.20089	58.134693	1564.0472	-235.1769	80.101265	1377.925	-211.38283	62.099525	1126.4531	-248.12862	-104.4145	1321.5549	-121.54865	-125.13409	1132.4907	-73.145531	43.48806	1315.3398	-293.2063	47.349461	1398.6365	-68.704605	-21.205387	1374.3994	24.651274	-176.78017	1318.2844	96.034294	-289.61526	1383.4607	64.69593	-385.97592	1396.3635	43.265186	-395.70898	1362.6182	104.01012	-475.82553	1408.8083	88.83429	-56.789124	1403.5569	-276.69299	-228.40796	1360.4313	-338.51831	-327.12558	1297.9165	-352.65942	-366.06903	1384.6323	-307.73944	-487.2608	1454.05	-237.97328	-522.29846	1403.5746	-273.00525	-563.22955	1476.0387	-261.36273	29.30237	929.10089	-42.86425	-204.42123	928.84949	-192.87517	67.752678	971.3479	-252.97278	-26.941473	958.87915	-313.71875
2503	25.02	-31.890686	1580.816	-64.686447	-81.962128	1577.2552	-214.59773	82.935028	1558.9192	-109.17423	58.835423	1563.9954	-235.194	80.556961	1377.865	-210.83228	62.724731	1126.7407	-247.26324	-104.44292	1321.7847	-121.89395	-125.72565	1132.8065	-73.526985	44.112125	1315.3754	-293.21588	46.726509	1399.5183	-69.250061	-22.233637	1378.201	23.431063	-178.78645	1326.0448	94.787781	-289.92557	1393.6387	63.312962	-385.96161	1408.8103	41.706818	-396.75012	1375.0322	102.24608	-475.43564	1423.4994	87.627274	-55.505386	1403.8499	-276.49582	-226.83905	1367.4232	-339.32156	-327.54477	1307.969	-352.96082	-365.29691	1395.2198	-308.00693	-486.3446	1466.2577	-239.3259	-521.8335	1416.4291	-274.97781	-561.68176	1489.7412	-263.44028	28.760424	929.15051	-42.489498	-204.05618	928.93512	-193.68941	68.375473	971.49518	-252.31841	-25.977825	959.08777	-313.58289
2504	25.03	-31.524666	1581.0031	-64.865059	-81.320816	1577.5546	-215.0498	83.356262	1558.8878	-109.1716	59.52832	1563.9674	-235.17111	80.957062	1377.7965	-210.30261	63.271233	1127.0297	-246.34868	-104.54161	1322.024	-122.25911	-126.39135	1133.1273	-73.902473	44.625652	1315.3938	-293.27615	45.991863	1400.3826	-69.806923	-23.341835	1381.7775	22.110867	-180.51392	1333.6644	93.400414	-290.28592	1403.246	61.549538	-385.79852	1420.7924	40.331017	-397.58118	1386.9966	100.50594	-474.82794	1437.4481	86.33918	-54.211033	1404.3092	-276.66879	-225.15817	1373.9412	-338.75757	-327.62961	1317.8125	-353.04202	-364.39078	1405.5729	-308.02435	-485.5123	1477.7574	-240.41806	-521.26874	1428.7485	-277.04987	-560.039	1502.2271	-264.40366	28.224846	929.23303	-42.235771	-203.80048	929.02478	-194.59538	69.040237	971.65833	-251.60933	-24.983088	959.29718	-313.42325
2505	25.04	-31.22031	1581.2117	-65.151398	-80.682373	1577.8386	-215.38324	83.721298	1558.8083	-109.18848	60.212044	1563.9402	-235.19521	81.304123	1377.6564	-209.838	63.769207	1127.3618	-245.54239	-104.66123	1322.233	-122.71182	-127.02721	1133.4312	-74.451706	45.085617	1315.4005	-293.19116	45.322254	1401.2799	-70.203735	-24.167713	1385.1329	21.061853	-182.40283	1340.5951	92.013184	-290.47882	1412.5325	59.996429	-385.49222	1432.297	39.008224	-398.21143	1398.2472	97.757767	-474.15921	1450.8035	85.195198	-53.01614	1404.5857	-276.37027	-223.35385	1380.1466	-337.78052	-327.35507	1327.6132	-353.28445	-363.41183	1415.6897	-307.79095	-484.81384	1488.6714	-241.44479	-520.56256	1440.4233	-279.00903	-558.48859	1514.5624	-266.42441	27.646025	929.3338	-41.880032	-203.4404	929.11053	-195.51056	69.584824	971.80261	-250.91969	-24.020845	959.5321	-313.2233
2506	25.05	-30.917004	1581.3995	-65.331764	-80.078056	1578.1647	-215.76418	84.088516	1558.7205	-109.14672	60.823208	1563.9192	-235.19336	81.550743	1377.5682	-209.36044	64.254852	1127.6926	-244.75156	-104.81148	1322.4633	-123.06287	-127.68536	1133.7778	-74.819847	45.509281	1315.4066	-293.10373	44.619526	1402.2533	-70.672653	-24.902901	1388.4807	20.005852	-184.01071	1347.4792	90.407097	-290.53784	1421.4348	58.391209	-385.25009	1443.1927	37.624733	-398.64487	1409.3054	97.192627	-473.38535	1463.5497	84.192947	-52.074173	1404.8983	-276.09717	-221.36891	1386.3145	-336.97009	-326.83179	1337.2081	-353.37891	-362.34195	1425.5017	-307.3093	-484.21326	1498.9095	-242.1114	-519.86011	1451.4729	-281.01886	-557.00134	1526.0193	-268.3526	27.020523	929.4696	-41.602516	-203.15369	929.22083	-196.4422	70.214134	972.01459	-250.21005	-23.126902	959.73102	-313.08731
2507	25.06	-30.669102	1581.5979	-65.630997	-79.463486	1578.5493	-216.26711	84.369743	1558.6359	-109.06217	61.468708	1563.844	-235.2253	81.736061	1377.6118	-208.9008	64.741791	1128.0116	-243.90891	-105.1384	1322.6215	-123.89001	-128.23141	1134.0603	-75.961494	45.81358	1315.4318	-292.92627	43.873646	1403.2289	-71.178978	-25.651253	1391.856	19.028522	-185.58144	1353.9567	88.845886	-290.6073	1429.9358	56.865574	-384.81656	1453.6448	36.520039	-398.94803	1419.6101	95.807411	-472.6322	1475.4625	83.135162	-51.137035	1405.1996	-275.80371	-219.28503	1392.4674	-336.10602	-326.02951	1346.4993	-353.31189	-361.3786	1434.816	-306.81033	-483.64764	1508.5841	-242.72629	-519.12701	1461.8809	-282.8179	-555.59698	1536.7024	-270.17865	26.39431	929.58527	-41.143341	-202.83676	929.32037	-197.38416	70.727425	972.1507	-249.49742	-22.211624	959.93823	-312.88168
2508	25.07	-30.505999	1581.8207	-65.899529	-78.880013	1578.8882	-216.76523	84.644997	1558.5409	-109.02013	62.081375	1563.812	-235.23631	81.945801	1377.6849	-208.46176	65.122261	1128.39	-243.15057	-105.34329	1322.8485	-124.25943	-128.86407	1134.3257	-76.443893	46.09964	1315.3665	-292.67035	43.144424	1403.9724	-71.781708	-26.359753	1395.046	17.854685	-186.93654	1360.3978	86.778282	-290.633	1438.0808	55.334648	-384.3876	1463.4838	35.53429	-399.15604	1429.2944	94.430717	-471.85135	1486.4371	82.01474	-50.2262	1405.7659	-275.56116	-217.02377	1398.5592	-335.30798	-325.06116	1355.5786	-353.39545	-360.11505	1443.6936	-306.04089	-483.19897	1517.6348	-243.3364	-518.39551	1470.969	-282.87851	-554.29626	1546.6409	-271.814	25.761253	929.6994	-40.918476	-202.55446	929.39392	-198.31763	71.27034	972.31006	-248.79417	-21.295603	960.11243	-312.77005
2509	25.08	-30.35722	1582.0365	-66.148315	-78.310463	1579.2775	-217.33182	84.839653	1558.4453	-108.99094	62.638088	1563.7677	-235.23712	82.124474	1377.7627	-208.00443	65.530968	1128.7485	-242.39542	-105.60802	1323.0707	-124.69428	-129.59988	1134.5933	-76.962013	46.32399	1315.302	-292.40958	42.486591	1404.6146	-72.407249	-27.055704	1398.1367	16.5811	-188.22607	1366.4795	85.312935	-290.59952	1445.7616	53.788593	-383.8678	1472.8497	34.60458	-399.32065	1438.3402	92.241051	-471.19662	1496.7388	80.998558	-49.348034	1406.0865	-275.19098	-214.76709	1404.3772	-334.47156	-323.84229	1364.2532	-353.42462	-358.83459	1452.1785	-305.38333	-482.6926	1526.0851	-243.99448	-517.45453	1480.351	-285.30301	-553.11194	1555.6581	-273.19022	25.126839	929.78784	-40.529182	-202.2769	929.48022	-199.30899	71.758987	972.41528	-248.15845	-20.399893	960.30194	-312.54431
2510	25.09	-30.173208	1582.2717	-66.423996	-77.804222	1579.6351	-217.81906	85.054306	1558.3739	-108.9832	63.155457	1563.6473	-235.2784	82.310181	1377.8762	-207.58461	65.874039	1129.1556	-241.67175	-105.75543	1323.3872	-124.64276	-130.43512	1134.8938	-76.694633	46.495209	1315.246	-292.15521	41.810925	1405.3083	-72.922546	-27.704006	1401.0762	15.321114	-189.38971	1372.2124	83.671028	-290.55975	1453.0164	52.371326	-383.47412	1481.5353	33.580425	-399.32755	1446.9996	91.895302	-470.5097	1506.3473	80.035477	-48.583275	1406.228	-274.78821	-212.56174	1409.8171	-333.59424	-322.61456	1372.366	-353.23398	-357.4194	1460.2075	-304.73013	-482.28067	1533.9585	-245.08156	-516.55688	1488.8529	-287.19861	-552.27759	1564.3413	-274.57358	24.505121	929.85938	-40.235027	-201.99918	929.56384	-200.41772	72.236229	972.57178	-247.50269	-19.506765	960.50549	-312.31329
